<svg xmlns="http://www.w3.org/2000/svg" xmlns:xlink="http://www.w3.org/1999/xlink" width="2000" zoomAndPan="magnify" viewBox="0 0 1500 1499.999933" height="2000" preserveAspectRatio="xMidYMid meet" version="1.0"><defs><g/><clipPath id="85588e9091"><path d="M 347.882812 702 L 500 702 L 500 853.535156 L 347.882812 853.535156 Z M 347.882812 702 " clip-rule="nonzero"/></clipPath><clipPath id="986d582221"><path d="M 423 627.035156 L 574.382812 627.035156 L 574.382812 779 L 423 779 Z M 423 627.035156 " clip-rule="nonzero"/></clipPath><clipPath id="d858f01fdb"><rect x="0" width="614" y="0" height="185"/></clipPath></defs><path fill="#a98b76" d="M 423.472656 702.625 L 499.058594 702.625 L 499.058594 778.210938 L 423.472656 778.210938 Z M 423.472656 702.625 " fill-opacity="1" fill-rule="evenodd"/><g clip-path="url(#85588e9091)"><path fill="#ddcabd" d="M 347.882812 778.265625 L 347.882812 702.625 L 423.472656 702.625 L 423.472656 778.265625 L 499.113281 778.265625 L 499.113281 853.851562 L 423.472656 853.851562 L 423.472656 778.265625 Z M 347.882812 778.265625 " fill-opacity="1" fill-rule="evenodd"/></g><g clip-path="url(#986d582221)"><path fill="#594f4f" d="M 423.472656 702.625 L 423.472656 627.035156 L 574.699219 627.035156 L 574.699219 778.265625 L 499.113281 778.265625 L 499.113281 702.625 Z M 423.472656 702.625 " fill-opacity="1" fill-rule="evenodd"/></g><g transform="matrix(1, 0, 0, 1, 583, 624)"><g clip-path="url(#d858f01fdb)"><g fill="#151414" fill-opacity="1"><g transform="translate(0.940022, 147.913786)"><g><path d="M 50.9375 3.078125 C 43.445312 3.078125 36.929688 2.082031 31.390625 0.09375 C 25.847656 -1.894531 21.269531 -4.578125 17.65625 -7.953125 C 14.039062 -11.335938 11.351562 -15.148438 9.59375 -19.390625 C 7.84375 -23.640625 6.96875 -28.019531 6.96875 -32.53125 L 30.046875 -32.4375 C 30.242188 -27.789062 32.097656 -23.890625 35.609375 -20.734375 C 39.128906 -17.585938 44.304688 -16.015625 51.140625 -16.015625 C 57.378906 -16.015625 61.972656 -17.207031 64.921875 -19.59375 C 67.867188 -21.988281 69.34375 -25.109375 69.34375 -28.953125 C 69.34375 -31.867188 68.515625 -34.15625 66.859375 -35.8125 C 65.203125 -37.476562 62.765625 -38.789062 59.546875 -39.75 C 56.328125 -40.707031 52.394531 -41.519531 47.75 -42.1875 C 42.84375 -42.851562 38.179688 -43.878906 33.765625 -45.265625 C 29.359375 -46.660156 25.460938 -48.582031 22.078125 -51.03125 C 18.703125 -53.488281 16.035156 -56.570312 14.078125 -60.28125 C 12.117188 -64 11.140625 -68.515625 11.140625 -73.828125 C 11.140625 -80.128906 12.613281 -85.632812 15.5625 -90.34375 C 18.519531 -95.050781 22.867188 -98.726562 28.609375 -101.375 C 34.347656 -104.03125 41.359375 -105.359375 49.640625 -105.359375 C 57.867188 -105.359375 65.082031 -103.984375 71.28125 -101.234375 C 77.488281 -98.484375 82.316406 -94.632812 85.765625 -89.6875 C 89.210938 -84.75 90.9375 -79.03125 90.9375 -72.53125 L 67.359375 -72.734375 C 67.085938 -76.515625 65.476562 -79.613281 62.53125 -82.03125 C 59.582031 -84.457031 55.320312 -85.671875 49.75 -85.671875 C 44.570312 -85.671875 40.789062 -84.554688 38.40625 -82.328125 C 36.019531 -80.109375 34.828125 -77.441406 34.828125 -74.328125 C 34.828125 -71.804688 35.390625 -69.765625 36.515625 -68.203125 C 37.640625 -66.640625 39.742188 -65.34375 42.828125 -64.3125 C 45.910156 -63.289062 50.375 -62.316406 56.21875 -61.390625 C 61.519531 -60.585938 66.457031 -59.523438 71.03125 -58.203125 C 75.613281 -56.878906 79.613281 -55.070312 83.03125 -52.78125 C 86.445312 -50.488281 89.113281 -47.535156 91.03125 -43.921875 C 92.957031 -40.304688 93.921875 -35.78125 93.921875 -30.34375 C 93.921875 -22.851562 92.046875 -16.632812 88.296875 -11.6875 C 84.554688 -6.75 79.453125 -3.050781 72.984375 -0.59375 C 66.515625 1.851562 59.164062 3.078125 50.9375 3.078125 Z M 50.9375 3.078125 "/></g></g></g><g fill="#151414" fill-opacity="1"><g transform="translate(94.695362, 147.913786)"><g><path d="M 25.96875 -118.203125 C 21.320312 -118.203125 17.6875 -119.546875 15.0625 -122.234375 C 12.445312 -124.921875 11.140625 -128.1875 11.140625 -132.03125 C 11.140625 -135.738281 12.445312 -138.953125 15.0625 -141.671875 C 17.6875 -144.398438 21.351562 -145.765625 26.0625 -145.765625 C 30.90625 -145.765625 34.632812 -144.398438 37.25 -141.671875 C 39.875 -138.953125 41.1875 -135.738281 41.1875 -132.03125 C 41.1875 -128.1875 39.875 -124.921875 37.25 -122.234375 C 34.632812 -119.546875 30.875 -118.203125 25.96875 -118.203125 Z M 38.203125 0 L 14.125 0 L 14.125 -102.28125 L 38.203125 -102.28125 Z M 38.203125 0 "/></g></g></g><g fill="#151414" fill-opacity="1"><g transform="translate(141.005102, 147.913786)"><g><path d="M 139.484375 -105.359375 C 152.359375 -105.359375 161.976562 -101 168.34375 -92.28125 C 174.707031 -83.5625 177.890625 -71.175781 177.890625 -55.125 L 177.890625 0 L 154.125 0 L 154.125 -54.625 C 154.125 -64.707031 152.179688 -71.984375 148.296875 -76.453125 C 144.421875 -80.929688 139.164062 -83.171875 132.53125 -83.171875 C 128.28125 -83.171875 124.265625 -81.878906 120.484375 -79.296875 C 116.703125 -76.710938 113.648438 -73.097656 111.328125 -68.453125 C 109.015625 -63.804688 107.859375 -58.398438 107.859375 -52.234375 L 107.859375 0 L 84.078125 0 L 84.078125 -54.625 C 84.078125 -64.707031 82.132812 -71.984375 78.25 -76.453125 C 74.375 -80.929688 69.148438 -83.171875 62.578125 -83.171875 C 58.265625 -83.171875 54.234375 -81.878906 50.484375 -79.296875 C 46.742188 -76.710938 43.710938 -73.097656 41.390625 -68.453125 C 39.066406 -63.804688 37.90625 -58.398438 37.90625 -52.234375 L 37.90625 0 L 14.125 0 L 14.125 -102.28125 L 36.609375 -102.28125 L 36.90625 -86.359375 C 38.695312 -90.003906 41.1875 -93.253906 44.375 -96.109375 C 47.5625 -98.960938 51.289062 -101.21875 55.5625 -102.875 C 59.84375 -104.53125 64.503906 -105.359375 69.546875 -105.359375 C 78.097656 -105.359375 85.207031 -103.382812 90.875 -99.4375 C 96.550781 -95.5 100.816406 -89.78125 103.671875 -82.28125 C 108.046875 -90.175781 113.285156 -95.992188 119.390625 -99.734375 C 125.492188 -103.484375 132.191406 -105.359375 139.484375 -105.359375 Z M 139.484375 -105.359375 "/></g></g></g><g fill="#151414" fill-opacity="1"><g transform="translate(326.269784, 147.913786)"><g><path d="M 38.203125 34.921875 L 14.125 34.921875 L 14.125 -102.28125 L 37.015625 -102.28125 L 37.015625 -85.0625 C 40.722656 -91.238281 45.660156 -96.148438 51.828125 -99.796875 C 58.003906 -103.441406 64.773438 -105.265625 72.140625 -105.265625 C 79.429688 -105.265625 86.109375 -103.851562 92.171875 -101.03125 C 98.242188 -98.21875 103.503906 -94.335938 107.953125 -89.390625 C 112.398438 -84.453125 115.847656 -78.71875 118.296875 -72.1875 C 120.753906 -65.65625 121.984375 -58.640625 121.984375 -51.140625 C 121.984375 -43.640625 120.753906 -36.609375 118.296875 -30.046875 C 115.847656 -23.484375 112.382812 -17.710938 107.90625 -12.734375 C 103.425781 -7.753906 98.179688 -3.875 92.171875 -1.09375 C 86.171875 1.6875 79.59375 3.078125 72.4375 3.078125 C 67.457031 3.078125 62.742188 2.265625 58.296875 0.640625 C 53.859375 -0.984375 49.878906 -3.269531 46.359375 -6.21875 C 42.847656 -9.164062 39.960938 -12.597656 37.703125 -16.515625 L 38.203125 -4.671875 Z M 68.046875 -19.109375 C 73.492188 -19.109375 78.488281 -20.398438 83.03125 -22.984375 C 87.570312 -25.566406 91.21875 -29.265625 93.96875 -34.078125 C 96.726562 -38.890625 98.109375 -44.578125 98.109375 -51.140625 C 98.109375 -57.578125 96.742188 -63.179688 94.015625 -67.953125 C 91.296875 -72.734375 87.664062 -76.445312 83.125 -79.09375 C 78.582031 -81.75 73.523438 -83.078125 67.953125 -83.078125 C 63.773438 -83.078125 59.878906 -82.265625 56.265625 -80.640625 C 52.648438 -79.015625 49.460938 -76.742188 46.703125 -73.828125 C 43.953125 -70.910156 41.796875 -67.523438 40.234375 -63.671875 C 38.679688 -59.828125 37.90625 -55.648438 37.90625 -51.140625 C 37.90625 -46.492188 38.703125 -42.210938 40.296875 -38.296875 C 41.890625 -34.390625 44.078125 -30.992188 46.859375 -28.109375 C 49.648438 -25.222656 52.867188 -23 56.515625 -21.4375 C 60.160156 -19.882812 64.003906 -19.109375 68.046875 -19.109375 Z M 68.046875 -19.109375 "/></g></g></g><g fill="#151414" fill-opacity="1"><g transform="translate(449.168859, 147.913786)"><g><path d="M 38.203125 0 L 14.125 0 L 14.125 -140.1875 L 38.203125 -140.1875 Z M 38.203125 0 "/></g></g></g><g fill="#151414" fill-opacity="1"><g transform="translate(495.478599, 147.913786)"><g><path d="M 111.4375 -52.9375 C 111.4375 -51.675781 111.398438 -50.476562 111.328125 -49.34375 C 111.265625 -48.21875 111.132812 -46.691406 110.9375 -44.765625 L 31.046875 -44.765625 C 31.898438 -39.203125 33.671875 -34.460938 36.359375 -30.546875 C 39.046875 -26.628906 42.378906 -23.625 46.359375 -21.53125 C 50.335938 -19.445312 54.6875 -18.40625 59.40625 -18.40625 C 65.5 -18.40625 70.4375 -19.613281 74.21875 -22.03125 C 78 -24.457031 80.753906 -27.828125 82.484375 -32.140625 L 108.75 -32.140625 C 107.488281 -27.554688 105.414062 -23.140625 102.53125 -18.890625 C 99.644531 -14.648438 96.113281 -10.890625 91.9375 -7.609375 C 87.757812 -4.328125 82.96875 -1.726562 77.5625 0.1875 C 72.15625 2.113281 66.265625 3.078125 59.890625 3.078125 C 52.203125 3.078125 45.125 1.671875 38.65625 -1.140625 C 32.1875 -3.960938 26.578125 -7.859375 21.828125 -12.828125 C 17.085938 -17.804688 13.40625 -23.578125 10.78125 -30.140625 C 8.164062 -36.710938 6.859375 -43.710938 6.859375 -51.140625 C 6.859375 -58.640625 8.164062 -65.65625 10.78125 -72.1875 C 13.40625 -78.71875 17.085938 -84.46875 21.828125 -89.4375 C 26.578125 -94.414062 32.1875 -98.3125 38.65625 -101.125 C 45.125 -103.945312 52.203125 -105.359375 59.890625 -105.359375 C 67.585938 -105.359375 74.601562 -103.960938 80.9375 -101.171875 C 87.269531 -98.390625 92.707031 -94.5625 97.25 -89.6875 C 101.800781 -84.8125 105.300781 -79.222656 107.75 -72.921875 C 110.207031 -66.628906 111.4375 -59.96875 111.4375 -52.9375 Z M 32.03125 -63.375 L 86.859375 -63.375 C 86.523438 -67.226562 85.097656 -70.726562 82.578125 -73.875 C 80.054688 -77.019531 76.804688 -79.554688 72.828125 -81.484375 C 68.847656 -83.410156 64.503906 -84.375 59.796875 -84.375 C 55.753906 -84.375 51.875 -83.625 48.15625 -82.125 C 44.4375 -80.632812 41.164062 -78.347656 38.34375 -75.265625 C 35.53125 -72.179688 33.425781 -68.21875 32.03125 -63.375 Z M 32.03125 -63.375 "/></g></g></g></g></g></svg>